<svg xmlns="http://www.w3.org/2000/svg" viewBox="0 0 180 180">
  <defs>
    <radialGradient id="bgGlow" cx="50%" cy="45%" r="55%">
      <stop offset="0%" stop-color="#262626" stop-opacity="0.4"/>
      <stop offset="100%" stop-color="#0A0A0A" stop-opacity="0"/>
    </radialGradient>
    <filter id="floatShadow">
      <feDropShadow dx="0" dy="4" stdDeviation="5" flood-color="#000" flood-opacity="0.6"/>
    </filter>
    <clipPath id="badge">
      <rect width="180" height="180" rx="42"/>
    </clipPath>
  </defs>

  <rect x="4" y="10" width="172" height="170" rx="42" fill="#000" opacity="0.3"/>
  <rect width="180" height="180" rx="42" fill="#0A0A0A"/>
  <rect width="180" height="180" rx="42" fill="url(#bgGlow)" clip-path="url(#badge)"/>

  <g filter="url(#floatShadow)">
    <path d="M56 46 C56 24 124 24 124 46 C124 70 56 68 56 90 C56 112 124 110 124 134 C124 156 56 156 56 134"
          fill="none" stroke="#D4D4D4" stroke-width="50" stroke-linecap="round" stroke-linejoin="round"
          transform="translate(0, 3)"/>
    <path d="M56 46 C56 24 124 24 124 46 C124 70 56 68 56 90 C56 112 124 110 124 134 C124 156 56 156 56 134"
          fill="none" stroke="#FFFFFF" stroke-width="50" stroke-linecap="round" stroke-linejoin="round"/>
  </g>
</svg>
