<svg xmlns="http://www.w3.org/2000/svg" viewBox="0 0 180 180">
  <defs>
    <filter id="s3d">
      <feDropShadow dx="2" dy="4" stdDeviation="3" flood-color="#000" flood-opacity="0.15"/>
    </filter>
    <clipPath id="badge">
      <rect width="180" height="180" rx="42"/>
    </clipPath>
  </defs>

  <rect width="180" height="180" rx="42" fill="#FFFFFF"/>
  <rect x="2" y="2" width="176" height="176" rx="40" fill="none" stroke="#E5E5E5" stroke-width="2"/>

  <g filter="url(#s3d)">
    <path d="M54 47 C54 25 126 25 126 47 C126 72 54 68 54 90 C54 112 126 108 126 133 C126 155 54 155 54 133"
          fill="none" stroke="#A0A0A0" stroke-width="50" stroke-linecap="round" stroke-linejoin="round"
          transform="translate(3, 4)"/>
    <path d="M54 47 C54 25 126 25 126 47 C126 72 54 68 54 90 C54 112 126 108 126 133 C126 155 54 155 54 133"
          fill="none" stroke="#000000" stroke-width="50" stroke-linecap="round" stroke-linejoin="round"/>
  </g>
</svg>
