<svg xmlns="http://www.w3.org/2000/svg" viewBox="0 0 100 100">
  <defs>
    <radialGradient id="bgGlow" cx="50%" cy="45%" r="55%">
      <stop offset="0%" stop-color="#262626" stop-opacity="0.4"/>
      <stop offset="100%" stop-color="#0A0A0A" stop-opacity="0"/>
    </radialGradient>
    <filter id="floatShadow">
      <feDropShadow dx="0" dy="2" stdDeviation="3" flood-color="#000" flood-opacity="0.6"/>
    </filter>
    <clipPath id="badge">
      <rect width="100" height="100" rx="24"/>
    </clipPath>
  </defs>

  <rect x="2" y="6" width="96" height="94" rx="24" fill="#000" opacity="0.3"/>
  <rect width="100" height="100" rx="24" fill="#0A0A0A"/>
  <rect width="100" height="100" rx="24" fill="url(#bgGlow)" clip-path="url(#badge)"/>

  <g filter="url(#floatShadow)">
    <path d="M32 26 C32 14 68 14 68 26 C68 40 32 38 32 50 C32 62 68 60 68 74 C68 86 32 86 32 74"
          fill="none" stroke="#D4D4D4" stroke-width="28" stroke-linecap="round" stroke-linejoin="round"
          transform="translate(0, 1.5)"/>
    <path d="M32 26 C32 14 68 14 68 26 C68 40 32 38 32 50 C32 62 68 60 68 74 C68 86 32 86 32 74"
          fill="none" stroke="#FFFFFF" stroke-width="28" stroke-linecap="round" stroke-linejoin="round"/>
  </g>
</svg>
